<svg width="1463" height="1005" viewBox="0 0 1463 1005" fill="none" xmlns="http://www.w3.org/2000/svg">
<g opacity="0.2">
<rect width="80.2262" height="80.2262" transform="matrix(1 0 0 -1 852.886 186.142)" fill="#003E56" fill-opacity="0.36"/>
<rect width="80.2262" height="80.2262" transform="matrix(1 0 0 -1 449.462 186.142)" fill="#005B7D" fill-opacity="0.25"/>
<rect width="80.2262" height="79.0801" transform="matrix(1 0 0 -1 1176.08 750.018)" fill="#005B7D" fill-opacity="0.11"/>
<rect width="80.2262" height="79.0801" transform="matrix(1 0 0 -1 529.688 830.244)" fill="#007BA7" fill-opacity="0.31"/>
<rect width="80.2262" height="79.0801" transform="matrix(1 0 0 -1 1094.71 669.793)" fill="#005B7D" fill-opacity="0.11"/>
<rect width="80.2262" height="79.0801" transform="matrix(1 0 0 -1 448.316 750.018)" fill="#007BA7" fill-opacity="0.31"/>
<rect width="80.2262" height="79.0801" transform="matrix(1 0 0 -1 1094.71 750.018)" fill="#005B7D" fill-opacity="0.11"/>
<rect width="80.2262" height="79.0801" transform="matrix(1 0 0 -1 448.316 830.244)" fill="#007BA7" fill-opacity="0.31"/>
<rect width="80.2262" height="80.2262" transform="matrix(1 0 0 -1 369.236 186.142)" fill="#005B7D" fill-opacity="0.25"/>
<rect width="80.2262" height="81.3723" transform="matrix(1 0 0 -1 369.236 105.917)" fill="#005B7D" fill-opacity="0.25"/>
<rect width="80.2262" height="80.2262" transform="matrix(1 0 0 -1 207.638 266.367)" fill="#005B7D" fill-opacity="0.25"/>
<rect width="80.2262" height="80.2262" transform="matrix(1 0 0 -1 1014.48 911.615)" fill="#007BA7" fill-opacity="0.61"/>
<rect width="80.2262" height="80.2262" transform="matrix(1 0 0 -1 934.258 1003.3)" fill="#007BA7" fill-opacity="0.61"/>
<rect width="80.2262" height="81.3723" transform="matrix(1 0 0 -1 933.381 912.762)" fill="#007BA7" fill-opacity="0.61"/>
<rect width="81.3723" height="82.5184" transform="matrix(1 0 0 -1 207.638 832.535)" fill="#007BA7" fill-opacity="0.24"/>
<rect width="81.3723" height="80.2262" transform="matrix(1 0 0 -1 126.266 912.762)" fill="#007BA7" fill-opacity="0.24"/>
<rect width="81.3723" height="80.2262" transform="matrix(1 0 0 -1 46.0396 911.615)" fill="#007BA7" fill-opacity="0.24"/>
<rect width="81.3723" height="82.5184" transform="matrix(1 0 0 -1 126.266 832.535)" fill="#007BA7" fill-opacity="0.24"/>
<rect width="81.3723" height="80.2262" transform="matrix(1 0 0 -1 449.463 992.99)" fill="#0093C7"/>
<rect width="80.2262" height="81.3723" transform="matrix(1 0 0 -1 207.638 670.938)" fill="#007BA7" fill-opacity="0.24"/>
<rect width="80.2262" height="80.2262" transform="matrix(1 0 0 -1 1176.08 266.367)" fill="#007BA7" fill-opacity="0.26"/>
<rect width="80.2262" height="80.2262" transform="matrix(1 0 0 -1 1256.31 186.142)" fill="#007BA7" fill-opacity="0.26"/>
</g>
</svg>
